<svg xmlns="http://www.w3.org/2000/svg" xmlns:xlink="http://www.w3.org/1999/xlink" viewBox="0 0 332.61 95.73"><defs><style>.cls-1{fill:none;}.cls-2{fill:url(#Nepojmenovaný_přechod_19);}.cls-3{fill:#cd1b31;}.cls-4{fill:#32425e;}.cls-5{fill:#b31f2d;}.cls-6{clip-path:url(#clip-path);}.cls-7{fill:#faf8f8;}.cls-8{clip-path:url(#clip-path-2);}.cls-9{fill:#d9d2d1;}.cls-10{clip-path:url(#clip-path-3);}.cls-11{fill:#fff;}</style><linearGradient id="Nepojmenovaný_přechod_19" x1="232.38" y1="137.33" x2="135.93" y2="-29.72" gradientUnits="userSpaceOnUse"><stop offset="0.06" stop-color="#c41d67"/><stop offset="0.95" stop-color="#e64b50"/></linearGradient><clipPath id="clip-path"><rect class="cls-1" x="286.47" y="35.45" width="2.51" height="17.09" transform="translate(203.6 322.65) rotate(-81.89)"/></clipPath><clipPath id="clip-path-2"><rect class="cls-1" x="286.99" y="36.04" width="1.32" height="17.09" transform="translate(202.95 323.07) rotate(-81.89)"/></clipPath><clipPath id="clip-path-3"><rect class="cls-1" x="296.35" y="29.64" width="3.42" height="3.5" transform="translate(224.96 322.04) rotate(-81.89)"/></clipPath></defs><g id="Vrstva_4" data-name="Vrstva 4"><rect class="cls-2" x="35.7" y="18.09" width="296.9" height="71.43" rx="23.74"/><g id="surface1"><path class="cls-3" d="M280.21,42.82a21.21,21.21,0,0,1,4.84-7.62c3.79-4,12.25-5.57,13.09-4.08s-4.48,2.06-4.39,5.75,2.45,6,1.26,8.05-14.8-2.1-14.8-2.1"/><path class="cls-4" d="M293.78,37.34h0m0,0h0m0,0h0m0,0h0m0,0h0m0,0h0m0,0h0m0,0c0-.14,0-.28,0-.43a4.31,4.31,0,0,1,0-.64,4.31,4.31,0,0,0,0,.64c0,.15,0,.29,0,.43m0-1.08h0m0,0h0m0,0h0m0,0h0m0,0h0m0,0h0m0,0h0m0,0h0m0,0h0m0,0h0m0,0h0"/><path class="cls-5" d="M295.33,43.91h-.07l-4.74-.67a32.17,32.17,0,0,1,.24-5.73c.5-4.17,5.67-5.71,5.67-5.71l.72.11s.05.22.13.6c-1.2.78-3.15,1.74-3.48,3.69h0a4.31,4.31,0,0,0,0,.64c0,.15,0,.29,0,.43h0c.21,2.85,1.7,4.87,1.55,6.57"/><g class="cls-6"><path class="cls-7" d="M294.94,46.17l-14.78-2.1a1,1,0,0,1-.89-1.18l0-.21a1,1,0,0,1,1.18-.88l14.78,2.1a1,1,0,0,1,.89,1.18l0,.21a1,1,0,0,1-1.18.88"/></g><path class="cls-4" d="M294.94,46.17l-14.78-2.1a1,1,0,0,1-.65-.36,1,1,0,0,0,.65.36l14.78,2.1a1,1,0,0,0,1.18-.88l0-.1,0,.1a1,1,0,0,1-1.18.88m-15.43-2.46h0"/><g class="cls-8"><path class="cls-9" d="M294.94,46.17l-14.78-2.1a1,1,0,0,1-.65-.36h0a1,1,0,0,1-.23-.82v-.11l16.86,2.41,0,.1a1,1,0,0,1-1.18.88"/></g><g class="cls-10"><path class="cls-7" d="M299.81,31.64a1.72,1.72,0,1,1-1.46-1.94,1.71,1.71,0,0,1,1.46,1.94"/></g></g><path class="cls-11" d="M114.34,67.32H110l-2.14-6.06H98.5l-2.06,6.06H92.12L101,43.51h4.45ZM106.81,58l-3.3-9.5a11.41,11.41,0,0,1-.31-1.49h-.07a9.82,9.82,0,0,1-.33,1.49L99.53,58Z"/><path class="cls-11" d="M132.63,67.32h-3.85V64.43h-.07a6.64,6.64,0,0,1-10.75,1,9.49,9.49,0,0,1-1.88-6.21,10.32,10.32,0,0,1,2.08-6.76,6.83,6.83,0,0,1,5.55-2.54,5.31,5.31,0,0,1,5,2.76h.07V42.15h3.85Zm-3.8-7.77V57.32a4.32,4.32,0,0,0-1.18-3.07,4,4,0,0,0-3-1.26,4.05,4.05,0,0,0-3.39,1.61A7.13,7.13,0,0,0,120,59.07a6.44,6.44,0,0,0,1.19,4.09,3.87,3.87,0,0,0,3.2,1.5,4,4,0,0,0,3.2-1.45A5.47,5.47,0,0,0,128.83,59.55Z"/><path class="cls-11" d="M152.3,50.32l-6.57,17h-4.17l-6.26-17h4.19l3.76,11.88a11.3,11.3,0,0,1,.54,2.3h.05a12.34,12.34,0,0,1,.46-2.23l3.95-12Z"/><path class="cls-11" d="M169,59.86H157.45a4.89,4.89,0,0,0,1.45,3.64,5.44,5.44,0,0,0,3.81,1.28,8.37,8.37,0,0,0,5-1.63v3.11a11.46,11.46,0,0,1-6.14,1.46,7.62,7.62,0,0,1-5.89-2.32,9.28,9.28,0,0,1-2.13-6.52,9,9,0,0,1,2.35-6.46,7.66,7.66,0,0,1,5.83-2.5,6.71,6.71,0,0,1,5.4,2.24A9.32,9.32,0,0,1,169,58.39Zm-3.72-2.72a5,5,0,0,0-1-3.23,3.27,3.27,0,0,0-2.66-1.15A3.73,3.73,0,0,0,158.87,54a5.57,5.57,0,0,0-1.42,3.17Z"/><path class="cls-11" d="M187.85,67.32H184V57.74c0-3.18-1.13-4.77-3.37-4.77a3.67,3.67,0,0,0-2.91,1.32,4.92,4.92,0,0,0-1.15,3.33v9.7h-3.86v-17h3.86v2.82h.07a6,6,0,0,1,5.51-3.22,5.15,5.15,0,0,1,4.24,1.8,8.12,8.12,0,0,1,1.46,5.21Z"/><path class="cls-11" d="M201.51,67.14a6.75,6.75,0,0,1-3,.56q-4.95,0-4.95-4.75V53.34h-2.84v-3h2.84V46.38l3.85-1.09v5h4.07v3h-4.07v8.5A3.38,3.38,0,0,0,198,64a2.28,2.28,0,0,0,1.83.64,2.63,2.63,0,0,0,1.69-.56Z"/><path class="cls-11" d="M213.11,66.79V63.22a7.73,7.73,0,0,0,4.77,1.64c2.32,0,3.49-.69,3.49-2.06a1.64,1.64,0,0,0-.3-1,2.86,2.86,0,0,0-.81-.72,6,6,0,0,0-1.19-.56L217.53,60a15,15,0,0,1-1.88-.88,5.76,5.76,0,0,1-1.4-1,4,4,0,0,1-.84-1.34,4.89,4.89,0,0,1-.28-1.74,4,4,0,0,1,.58-2.17,5.08,5.08,0,0,1,1.56-1.57,7.62,7.62,0,0,1,2.23-1,10.4,10.4,0,0,1,2.57-.32,11.85,11.85,0,0,1,4.22.71V54a7.12,7.12,0,0,0-4.12-1.23,5.32,5.32,0,0,0-1.32.15,3.27,3.27,0,0,0-1,.42,2,2,0,0,0-.65.64,1.47,1.47,0,0,0-.23.82,1.69,1.69,0,0,0,.23.93,2,2,0,0,0,.69.67,5.54,5.54,0,0,0,1.09.53l1.47.53c.73.3,1.39.6,2,.91a6.8,6.8,0,0,1,1.49,1.05,4.37,4.37,0,0,1,.94,1.36,4.69,4.69,0,0,1,.33,1.84,4.28,4.28,0,0,1-.59,2.26,5,5,0,0,1-1.6,1.59,7.56,7.56,0,0,1-2.3.94,12.17,12.17,0,0,1-2.74.31A11.64,11.64,0,0,1,213.11,66.79Z"/><path class="cls-11" d="M237.52,66.37V62.3a6.09,6.09,0,0,0,1.3.9,9.82,9.82,0,0,0,1.6.67,11.76,11.76,0,0,0,1.7.43,8.91,8.91,0,0,0,1.56.15,6.7,6.7,0,0,0,3.71-.83,2.75,2.75,0,0,0,1.22-2.41,2.61,2.61,0,0,0-.41-1.47,4.25,4.25,0,0,0-1.14-1.14,12.09,12.09,0,0,0-1.71-1l-2.12-1c-.81-.44-1.56-.87-2.26-1.32a10.3,10.3,0,0,1-1.82-1.46A6.5,6.5,0,0,1,237.94,52a6,6,0,0,1-.44-2.38,5.42,5.42,0,0,1,.76-2.91,6.46,6.46,0,0,1,2-2,9,9,0,0,1,2.81-1.2,13.47,13.47,0,0,1,3.23-.39,12.87,12.87,0,0,1,5.44.85v3.9a8.72,8.72,0,0,0-5.21-1.46,9.35,9.35,0,0,0-1.75.17,5.13,5.13,0,0,0-1.56.54,3.47,3.47,0,0,0-1.13,1,2.46,2.46,0,0,0-.43,1.45,2.76,2.76,0,0,0,.33,1.38A3.73,3.73,0,0,0,243,52a9.87,9.87,0,0,0,1.56.94c.61.3,1.32.63,2.13,1s1.61.89,2.35,1.36a11.81,11.81,0,0,1,1.94,1.58,7.11,7.11,0,0,1,1.33,1.92,5.56,5.56,0,0,1,.49,2.4,5.64,5.64,0,0,1-2.7,5.08,8.63,8.63,0,0,1-2.85,1.13,16.12,16.12,0,0,1-3.4.35,12.46,12.46,0,0,1-1.47-.1c-.58-.06-1.17-.14-1.78-.26s-1.19-.26-1.73-.42A5.62,5.62,0,0,1,237.52,66.37Z"/><path class="cls-11" d="M272.4,46.86h-6.84V67.32h-3.95V46.86h-6.82V43.51H272.4Z"/><path class="cls-11" d="M291.11,66.32a14.47,14.47,0,0,1-6.69,1.4,10.93,10.93,0,0,1-8.3-3.27A11.94,11.94,0,0,1,273,55.86a12.52,12.52,0,0,1,3.51-9.23,12,12,0,0,1,8.87-3.52,14.63,14.63,0,0,1,5.73,1V48a10.26,10.26,0,0,0-5.31-1.43,8.34,8.34,0,0,0-6.27,2.48,9.08,9.08,0,0,0-2.4,6.6,8.67,8.67,0,0,0,2.24,6.27,7.79,7.79,0,0,0,5.89,2.33,10.59,10.59,0,0,0,5.85-1.59Z"/><image width="1254" height="1249" transform="translate(0.97 3.01) scale(0.07)" xlink:href="STCmockup2-9-08.png"/></g></svg>